<?xml version="1.0" encoding="utf-8"?>
<!-- Generator: Adobe Illustrator 24.0.0, SVG Export Plug-In . SVG Version: 6.00 Build 0)  -->
<svg version="1.1" id="Layer_1" xmlns="http://www.w3.org/2000/svg" xmlns:xlink="http://www.w3.org/1999/xlink" x="0px" y="0px"
	 viewBox="0 0 125.9 21.4" style="enable-background:new 0 0 125.9 21.4;" xml:space="preserve">
<style type="text/css">
	.st0{fill-rule:evenodd;clip-rule:evenodd;fill:#EA6267;}
	.st1{fill:#4D4D4D;}
	.st2{fill:#FFFFFF;}
	.st3{fill-rule:evenodd;clip-rule:evenodd;fill:#FEFEFE;}
</style>
<g id="Layer_x0020_1">
	<path class="st0" d="M0.6,0h20.1c0.4,0,0.7,0.4,0.7,0.5v20.1c0,0.4-0.4,0.7-0.7,0.7H0.6c-0.2,0-0.5-0.4-0.5-0.7V0.5
		C0.1,0.4,0.4,0,0.6,0z"/>
	<path class="st1" d="M32.5,10.9c0.5,0,0.9,0,1.2-0.2c0.4,0,0.5-0.2,0.9-0.5C34.8,10,35,9.8,35,9.4c0.2-0.2,0.2-0.5,0.2-0.9
		s0-0.7-0.2-1.1c0-0.2-0.2-0.5-0.4-0.7c-0.4-0.2-0.5-0.4-0.9-0.4c-0.4-0.2-0.7-0.2-1.2-0.2h-1.8v4.6H32.5z M32.5,4.3
		c0.9,0,1.8,0.2,2.3,0.4c0.7,0.2,1.2,0.5,1.6,0.9c0.4,0.4,0.7,0.7,0.9,1.2c0.2,0.5,0.4,1.1,0.4,1.8c0,0.5-0.2,1.1-0.4,1.6
		c-0.2,0.5-0.5,1.1-0.9,1.4c-0.5,0.4-1.1,0.7-1.6,0.9c-0.7,0.2-1.4,0.4-2.3,0.4h-1.8v4.6h-2.5V4.3H32.5z M44.8,11.8
		c0-0.4,0-0.7-0.2-0.9c0-0.2-0.2-0.5-0.4-0.7c-0.2-0.2-0.4-0.4-0.5-0.4c-0.4-0.2-0.5-0.2-0.9-0.2c-0.7,0-1.2,0.2-1.6,0.5
		c-0.4,0.4-0.5,0.9-0.7,1.6H44.8z M40.5,13c0,0.5,0.2,0.9,0.2,1.2c0.2,0.4,0.4,0.7,0.5,0.9c0.4,0.2,0.5,0.4,0.9,0.5
		c0.2,0.2,0.5,0.2,0.9,0.2c0.4,0,0.7,0,1.1-0.2c0.2,0,0.4-0.2,0.5-0.2c0.4-0.2,0.4-0.4,0.5-0.4c0.2,0,0.4-0.2,0.5-0.2
		s0.4,0.2,0.4,0.2l0.7,0.9c-0.4,0.4-0.5,0.5-0.9,0.7c-0.4,0.2-0.7,0.4-0.9,0.5c-0.4,0-0.7,0.2-1.1,0.2c-0.4,0-0.7,0.2-1.1,0.2
		c-0.7,0-1.2-0.2-1.8-0.4s-1.1-0.5-1.4-1.1c-0.5-0.4-0.7-0.9-1.1-1.4c-0.2-0.7-0.4-1.4-0.4-2.1s0.2-1.2,0.4-2
		c0.2-0.5,0.5-0.9,0.9-1.4c0.4-0.4,0.9-0.7,1.4-0.9C41.4,8,42.1,8,42.8,8c0.5,0,1.1,0,1.6,0.2c0.4,0.2,0.9,0.5,1.2,0.9
		c0.4,0.4,0.5,0.7,0.9,1.2c0.2,0.5,0.2,1.2,0.2,1.8c0,0.4,0,0.7,0,0.7C46.5,13,46.4,13,46.2,13H40.5z M48.5,17.5V8h1.4
		c0.2,0,0.4,0.2,0.5,0.5l0.2,0.7c0-0.2,0.2-0.4,0.4-0.5c0.2-0.2,0.5-0.4,0.7-0.4c0.2-0.2,0.4-0.2,0.5-0.4c0.4,0,0.5,0,0.9,0
		c0.5,0,1.1,0.2,1.4,0.4c0.4,0.4,0.5,0.9,0.9,1.2c0-0.2,0.2-0.5,0.5-0.7c0.2-0.2,0.4-0.4,0.7-0.5c0.2-0.2,0.5-0.2,0.7-0.4
		c0.4,0,0.7,0,0.9,0c0.5,0,1.1,0,1.4,0.2c0.4,0.2,0.7,0.4,1.1,0.7c0.2,0.4,0.4,0.7,0.5,1.1c0.2,0.5,0.2,0.9,0.2,1.6v5.9h-2.1v-5.9
		c0-0.7-0.2-1.1-0.4-1.4c-0.4-0.4-0.7-0.5-1.2-0.5c-0.2,0-0.4,0.2-0.5,0.2c-0.4,0.2-0.5,0.2-0.5,0.4c-0.2,0.2-0.4,0.4-0.4,0.5
		c-0.2,0.2-0.2,0.5-0.2,0.9v5.9h-2.3v-5.9c0-0.7,0-1.2-0.4-1.4c-0.2-0.4-0.5-0.5-1.1-0.5c-0.4,0-0.7,0.2-0.9,0.4
		c-0.4,0.2-0.5,0.4-0.9,0.7v6.8H48.5z M66,15c0.2,0.4,0.5,0.5,0.9,0.7c0.2,0.2,0.5,0.2,0.9,0.2c0.4,0,0.7,0,0.9-0.2
		c0.4-0.2,0.5-0.4,0.7-0.5c0.2-0.4,0.4-0.7,0.5-1.1c0-0.4,0.2-0.9,0.2-1.4c0-1.1-0.2-1.8-0.5-2.3c-0.4-0.4-0.9-0.7-1.6-0.7
		c-0.4,0-0.7,0.2-1.1,0.4c-0.4,0.2-0.5,0.5-0.9,0.9V15z M66,9.3c0.4-0.4,0.7-0.7,1.2-0.9C67.7,8,68.3,8,68.8,8s1.1,0,1.4,0.2
		c0.4,0.4,0.9,0.5,1.1,1.1c0.4,0.4,0.5,0.9,0.7,1.4c0.2,0.5,0.4,1.1,0.4,1.8c0,0.9-0.2,1.4-0.4,2.1c-0.2,0.5-0.5,1.1-0.9,1.6
		c-0.2,0.4-0.7,0.7-1.2,1.1c-0.4,0.2-0.9,0.4-1.6,0.4c-0.2,0-0.5-0.2-0.7-0.2c-0.4,0-0.5-0.2-0.7-0.2c-0.2-0.2-0.4-0.4-0.5-0.4
		c-0.2-0.2-0.4-0.4-0.5-0.5v0.5c0,0.2-0.2,0.4-0.2,0.4c-0.2,0.2-0.2,0.2-0.4,0.2h-1.6V3.9H66V9.3z M79,13.4
		c-0.7,0.2-1.2,0.2-1.6,0.2c-0.5,0.2-0.9,0.2-1.1,0.4c-0.4,0.2-0.5,0.4-0.5,0.5c-0.2,0.2-0.2,0.4-0.2,0.5c0,0.4,0,0.7,0.4,0.9
		c0.2,0.2,0.5,0.2,0.9,0.2c0.4,0,0.9,0,1.2-0.2c0.2-0.2,0.5-0.5,0.9-0.9V13.4z M73.8,9.4C74.9,8.4,76.1,8,77.7,8
		c0.5,0,1.1,0,1.4,0.2c0.5,0.2,0.9,0.4,1.1,0.7c0.4,0.4,0.5,0.7,0.7,1.2c0.2,0.4,0.2,0.9,0.2,1.4v5.9h-0.9c-0.4,0-0.4,0-0.5-0.2
		c-0.2,0-0.2-0.2-0.4-0.4l-0.2-0.7c-0.2,0.4-0.4,0.5-0.7,0.5c-0.2,0.2-0.4,0.4-0.7,0.5c-0.2,0-0.4,0.2-0.7,0.2
		c-0.2,0-0.5,0.2-0.9,0.2c-0.4,0-0.7-0.2-1.1-0.2c-0.4-0.2-0.7-0.4-0.9-0.5s-0.4-0.5-0.5-0.7c-0.2-0.4-0.2-0.7-0.2-1.2
		c0-0.2,0-0.4,0-0.5c0.2-0.4,0.4-0.5,0.5-0.7c0.2-0.2,0.4-0.5,0.5-0.7c0.4-0.2,0.7-0.4,1.1-0.4c0.5-0.2,0.9-0.4,1.4-0.4
		c0.7-0.2,1.2-0.2,2-0.2v-0.5c0-0.7-0.2-1.1-0.4-1.4c-0.4-0.4-0.7-0.5-1.2-0.5c-0.4,0-0.5,0.2-0.9,0.2c-0.2,0.2-0.4,0.2-0.5,0.4
		c-0.2,0-0.4,0.2-0.5,0.2c-0.2,0.2-0.4,0.2-0.5,0.2c-0.2,0-0.2,0-0.4-0.2c-0.2,0-0.2-0.2-0.4-0.2L73.8,9.4z M91.4,8l-5,11.9
		c-0.2,0.2-0.2,0.4-0.4,0.4c0,0.2-0.2,0.2-0.4,0.2h-1.8l1.8-3.7L82,8h2c0.2,0,0.4,0.2,0.4,0.2c0.2,0.2,0.2,0.2,0.4,0.4l2,4.8
		c0,0.2,0,0.4,0.2,0.5c0,0.2,0,0.4,0,0.5c0.2-0.2,0.2-0.4,0.2-0.5c0.2-0.2,0.2-0.4,0.2-0.5l2-4.8c0-0.2,0.2-0.2,0.2-0.4
		c0.2,0,0.4-0.2,0.4-0.2H91.4z M97.3,13.4c-0.5,0.2-1.1,0.2-1.6,0.2c-0.4,0.2-0.7,0.2-1.1,0.4c-0.2,0.2-0.4,0.4-0.5,0.5
		c-0.2,0.2-0.2,0.4-0.2,0.5c0,0.4,0.2,0.7,0.4,0.9c0.2,0.2,0.5,0.2,0.9,0.2c0.5,0,0.9,0,1.2-0.2s0.5-0.5,0.9-0.9V13.4z M92.1,9.4
		C93.2,8.4,94.6,8,96,8c0.5,0,1.1,0,1.4,0.2c0.5,0.2,0.9,0.4,1.1,0.7c0.4,0.4,0.5,0.7,0.7,1.2c0.2,0.4,0.4,0.9,0.4,1.4v5.9h-1.1
		c-0.2,0-0.4,0-0.5-0.2c-0.2,0-0.2-0.2-0.2-0.4l-0.4-0.7c-0.2,0.4-0.4,0.5-0.5,0.5c-0.4,0.2-0.5,0.4-0.7,0.5c-0.4,0-0.5,0.2-0.9,0.2
		c-0.2,0-0.5,0.2-0.9,0.2c-0.4,0-0.7-0.2-1.1-0.2c-0.4-0.2-0.5-0.4-0.9-0.5c-0.2-0.2-0.4-0.5-0.5-0.7c-0.2-0.4-0.2-0.7-0.2-1.2
		c0-0.2,0-0.4,0.2-0.5c0-0.4,0.2-0.5,0.4-0.7c0.2-0.2,0.4-0.5,0.7-0.7c0.2-0.2,0.5-0.4,1.1-0.4c0.4-0.2,0.9-0.4,1.4-0.4
		c0.5-0.2,1.1-0.2,1.8-0.2v-0.5c0-0.7,0-1.1-0.4-1.4c-0.2-0.4-0.7-0.5-1.1-0.5c-0.5,0-0.7,0.2-1.1,0.2c-0.2,0.2-0.4,0.2-0.5,0.4
		c-0.2,0-0.4,0.2-0.5,0.2c-0.2,0.2-0.4,0.2-0.5,0.2c-0.2,0-0.2,0-0.4-0.2c-0.2,0-0.2-0.2-0.2-0.2L92.1,9.4z M103.7,9.8
		c0.4-0.7,0.7-1.1,1.1-1.4c0.4-0.4,0.9-0.4,1.4-0.4s0.9,0,1.1,0.2l-0.2,1.8c0,0,0,0.2-0.2,0.2c0,0,0,0-0.2,0c0,0-0.2,0-0.4,0
		c-0.2,0-0.4,0-0.5,0c-0.2,0-0.5,0-0.7,0c-0.2,0.2-0.4,0.2-0.5,0.4c-0.2,0.2-0.2,0.4-0.4,0.5s-0.2,0.4-0.4,0.7v5.7h-2.3V8h1.4
		c0.2,0,0.4,0.2,0.5,0.2c0,0.2,0,0.2,0.2,0.5V9.8z M113.3,13.4c-0.7,0.2-1.2,0.2-1.8,0.2c-0.4,0.2-0.7,0.2-0.9,0.4
		c-0.4,0.2-0.5,0.4-0.7,0.5c0,0.2-0.2,0.4-0.2,0.5c0,0.4,0.2,0.7,0.4,0.9c0.4,0.2,0.5,0.2,0.9,0.2c0.5,0,0.9,0,1.2-0.2
		c0.4-0.2,0.7-0.5,1.1-0.9V13.4z M108.2,9.4c1.1-1.1,2.3-1.4,3.9-1.4c0.5,0,0.9,0,1.4,0.2c0.4,0.2,0.7,0.4,1.1,0.7s0.5,0.7,0.7,1.2
		c0.2,0.4,0.2,0.9,0.2,1.4v5.9h-1.1c-0.2,0-0.4,0-0.5-0.2c0,0-0.2-0.2-0.2-0.4l-0.2-0.7c-0.2,0.4-0.5,0.5-0.7,0.5
		c-0.2,0.2-0.5,0.4-0.7,0.5c-0.2,0-0.5,0.2-0.7,0.2c-0.4,0-0.7,0.2-0.9,0.2c-0.5,0-0.9-0.2-1.2-0.2c-0.2-0.2-0.5-0.4-0.7-0.5
		c-0.4-0.2-0.5-0.5-0.7-0.7c0-0.4-0.2-0.7-0.2-1.2c0-0.2,0-0.4,0.2-0.5c0-0.4,0.2-0.5,0.4-0.7c0.2-0.2,0.4-0.5,0.7-0.7
		c0.4-0.2,0.7-0.4,1.1-0.4c0.4-0.2,0.9-0.4,1.4-0.4c0.5-0.2,1.2-0.2,2-0.2v-0.5c0-0.7-0.2-1.1-0.5-1.4c-0.2-0.4-0.5-0.5-1.1-0.5
		c-0.4,0-0.7,0.2-0.9,0.2c-0.2,0.2-0.5,0.2-0.7,0.4c-0.2,0-0.4,0.2-0.4,0.2c-0.2,0.2-0.4,0.2-0.5,0.2c-0.2,0-0.4,0-0.5-0.2l-0.2-0.2
		L108.2,9.4z M119.7,9.3c0.2-0.2,0.4-0.4,0.5-0.5c0.2-0.2,0.4-0.4,0.7-0.4c0.2-0.2,0.4-0.2,0.7-0.4c0.2,0,0.5,0,0.9,0
		c0.5,0,0.9,0,1.2,0.2c0.5,0.2,0.9,0.4,1.1,0.7s0.5,0.7,0.5,1.1c0.2,0.5,0.4,1.1,0.4,1.6v5.9h-2.3v-5.9c0-0.7-0.2-1.1-0.4-1.4
		c-0.4-0.4-0.7-0.5-1.2-0.5c-0.4,0-0.7,0.2-1.1,0.4s-0.7,0.4-0.9,0.7v6.8h-2.3V8h1.4c0.2,0,0.4,0.2,0.5,0.5L119.7,9.3z"/>
	<g id="_2321379622992">
		<path class="st2" d="M10.9,14.8c-1.1,0-1.8-0.4-2.3-1.1c-0.2-0.2-0.4-0.9-0.4-1.1c4.8,0,7.8-1.1,7.8-4.1c0-0.5-0.2-1.1-0.4-1.4
			c-0.7,0.4-2,0.7-3.2,0.9c0.2,0.2,0.2,0.4,0.2,0.5c0,1.1-1.4,1.4-4.1,1.4c0.2-0.7,0.5-1.6,1.2-2C9,7.8,8.1,7.5,7.2,7.1
			C7,7.5,7,7.8,6.8,8.2c0.2,0,0.4,0.2,0.4,0.4L7,10c0,0.2-0.2,0.4-0.4,0.4l-0.2-0.2c-0.2,0-0.2-0.2-0.2-0.2l0.2-1.6
			c0-0.2,0-0.2,0.2-0.2c0-0.4,0.2-0.7,0.4-1.2c-1.4,1.4-2.1,3.6-2.1,5.5c0,3,1.8,5,5.2,5c2.1,0,3.7-0.5,5.5-1.2l-1.1-2.3
			C13.4,14.4,12.4,14.8,10.9,14.8z"/>
		<path class="st3" d="M16.1,6.6c0,0-2.5,1.1-4.5,1.1c-0.9,0-2.5-0.4-3.7-0.7C7.5,6.8,7.4,6.8,7,6.6C6.5,6.4,6.1,6.1,6.1,5.9
			c-0.2-0.7,4.1-2.1,5.7-2C13.2,3.9,18.1,6.1,16.1,6.6z"/>
	</g>
</g>
</svg>
